<svg width="201" height="45" viewBox="0 0 201 45" fill="none" xmlns="http://www.w3.org/2000/svg">
<mask id="path-1-outside-1_1_2863" maskUnits="userSpaceOnUse" x="0.5" y="0" width="200" height="45" fill="black">
<rect fill="white" x="0.5" width="200" height="45"/>
<path d="M0.5 0H200.5V44H0.5V0Z"/>
</mask>
<path d="M0.5 0H200.5V44H0.5V0Z" fill="white" fill-opacity="0.28"/>
<path d="M0.5 44V44.5H1.5V44V43.5H0.5V44ZM3.5 44V44.5H5.5V44V43.5H3.5V44ZM7.5 44V44.5H9.5V44V43.5H7.5V44ZM11.5 44V44.5H13.5V44V43.5H11.5V44ZM15.5 44V44.5H17.5V44V43.5H15.5V44ZM19.5 44V44.5H21.5V44V43.5H19.5V44ZM23.5 44V44.5H25.5V44V43.5H23.5V44ZM27.5 44V44.5H29.5V44V43.5H27.5V44ZM31.5 44V44.5H33.5V44V43.5H31.5V44ZM35.5 44V44.5H37.5V44V43.5H35.5V44ZM39.5 44V44.5H41.5V44V43.5H39.5V44ZM43.5 44V44.5H45.5V44V43.5H43.5V44ZM47.5 44V44.5H49.5V44V43.5H47.5V44ZM51.5 44V44.5H53.5V44V43.5H51.5V44ZM55.5 44V44.5H57.5V44V43.5H55.5V44ZM59.5 44V44.5H61.5V44V43.5H59.5V44ZM63.5 44V44.5H65.5V44V43.5H63.5V44ZM67.5 44V44.5H69.5V44V43.5H67.5V44ZM71.5 44V44.5H73.5V44V43.5H71.5V44ZM75.5 44V44.5H77.5V44V43.5H75.5V44ZM79.5 44V44.5H81.5V44V43.5H79.5V44ZM83.5 44V44.5H85.5V44V43.5H83.5V44ZM87.5 44V44.5H89.5V44V43.5H87.5V44ZM91.5 44V44.5H93.5V44V43.5H91.5V44ZM95.5 44V44.5H97.5V44V43.5H95.5V44ZM99.5 44V44.5H101.5V44V43.5H99.5V44ZM103.5 44V44.5H105.5V44V43.5H103.5V44ZM107.5 44V44.5H109.5V44V43.5H107.5V44ZM111.5 44V44.5H113.5V44V43.5H111.5V44ZM115.5 44V44.5H117.5V44V43.5H115.5V44ZM119.5 44V44.5H121.5V44V43.5H119.5V44ZM123.5 44V44.5H125.5V44V43.5H123.5V44ZM127.5 44V44.5H129.5V44V43.5H127.5V44ZM131.5 44V44.5H133.5V44V43.5H131.5V44ZM135.5 44V44.5H137.5V44V43.5H135.5V44ZM139.5 44V44.5H141.5V44V43.5H139.5V44ZM143.5 44V44.5H145.5V44V43.5H143.5V44ZM147.5 44V44.5H149.5V44V43.5H147.5V44ZM151.5 44V44.5H153.5V44V43.5H151.5V44ZM155.5 44V44.5H157.5V44V43.5H155.5V44ZM159.5 44V44.5H161.5V44V43.5H159.5V44ZM163.5 44V44.5H165.5V44V43.5H163.5V44ZM167.5 44V44.5H169.5V44V43.5H167.5V44ZM171.5 44V44.5H173.5V44V43.5H171.5V44ZM175.5 44V44.5H177.5V44V43.5H175.5V44ZM179.5 44V44.5H181.5V44V43.5H179.5V44ZM183.5 44V44.5H185.5V44V43.5H183.5V44ZM187.5 44V44.5H189.5V44V43.5H187.5V44ZM191.5 44V44.5H193.5V44V43.5H191.5V44ZM195.5 44V44.5H197.5V44V43.5H195.5V44ZM199.5 44V44.5H200.5V44V43.5H199.5V44ZM0.5 44V45H1.5V44V43H0.5V44ZM3.5 44V45H5.5V44V43H3.5V44ZM7.5 44V45H9.5V44V43H7.5V44ZM11.5 44V45H13.5V44V43H11.5V44ZM15.5 44V45H17.5V44V43H15.5V44ZM19.5 44V45H21.5V44V43H19.5V44ZM23.5 44V45H25.5V44V43H23.5V44ZM27.5 44V45H29.5V44V43H27.5V44ZM31.5 44V45H33.5V44V43H31.5V44ZM35.5 44V45H37.5V44V43H35.5V44ZM39.5 44V45H41.5V44V43H39.5V44ZM43.5 44V45H45.5V44V43H43.5V44ZM47.5 44V45H49.5V44V43H47.5V44ZM51.5 44V45H53.5V44V43H51.5V44ZM55.5 44V45H57.5V44V43H55.5V44ZM59.5 44V45H61.5V44V43H59.5V44ZM63.5 44V45H65.5V44V43H63.5V44ZM67.5 44V45H69.5V44V43H67.5V44ZM71.5 44V45H73.5V44V43H71.5V44ZM75.5 44V45H77.5V44V43H75.5V44ZM79.5 44V45H81.5V44V43H79.5V44ZM83.5 44V45H85.5V44V43H83.5V44ZM87.5 44V45H89.5V44V43H87.5V44ZM91.5 44V45H93.5V44V43H91.5V44ZM95.5 44V45H97.5V44V43H95.5V44ZM99.5 44V45H101.5V44V43H99.5V44ZM103.5 44V45H105.5V44V43H103.5V44ZM107.5 44V45H109.5V44V43H107.5V44ZM111.5 44V45H113.5V44V43H111.5V44ZM115.5 44V45H117.5V44V43H115.5V44ZM119.5 44V45H121.5V44V43H119.5V44ZM123.5 44V45H125.5V44V43H123.5V44ZM127.5 44V45H129.5V44V43H127.5V44ZM131.5 44V45H133.5V44V43H131.5V44ZM135.5 44V45H137.5V44V43H135.5V44ZM139.5 44V45H141.5V44V43H139.5V44ZM143.5 44V45H145.5V44V43H143.5V44ZM147.5 44V45H149.5V44V43H147.5V44ZM151.5 44V45H153.5V44V43H151.5V44ZM155.5 44V45H157.5V44V43H155.5V44ZM159.5 44V45H161.5V44V43H159.5V44ZM163.5 44V45H165.5V44V43H163.5V44ZM167.5 44V45H169.5V44V43H167.5V44ZM171.5 44V45H173.5V44V43H171.5V44ZM175.5 44V45H177.5V44V43H175.5V44ZM179.5 44V45H181.5V44V43H179.5V44ZM183.5 44V45H185.5V44V43H183.5V44ZM187.5 44V45H189.5V44V43H187.5V44ZM191.5 44V45H193.5V44V43H191.5V44ZM195.5 44V45H197.5V44V43H195.5V44ZM199.5 44V45H200.5V44V43H199.5V44Z" fill="#794EF2" mask="url(#path-1-outside-1_1_2863)"/>
<path d="M81.6122 28V16.48H88.8922V17.832H83.0362V21.44H87.9322V22.792H83.0362V26.648H88.8922V28H81.6122ZM101.143 28L101.151 22.472C101.151 21.8267 100.978 21.3227 100.631 20.96C100.29 20.592 99.8446 20.408 99.2953 20.408C98.9753 20.408 98.6713 20.4827 98.3833 20.632C98.0953 20.776 97.8606 21.0053 97.6793 21.32C97.498 21.6293 97.4073 22.0267 97.4073 22.512L96.6553 22.208C96.6446 21.5947 96.77 21.0587 97.0313 20.6C97.298 20.136 97.6606 19.776 98.1193 19.52C98.578 19.264 99.0953 19.136 99.6713 19.136C100.573 19.136 101.282 19.4107 101.799 19.96C102.317 20.504 102.575 21.2373 102.575 22.16L102.567 28H101.143ZM90.8073 28V19.36H92.0793V21.672H92.2393V28H90.8073ZM95.9833 28L95.9913 22.528C95.9913 21.8667 95.8206 21.3493 95.4793 20.976C95.138 20.5973 94.6846 20.408 94.1193 20.408C93.5593 20.408 93.106 20.6 92.7593 20.984C92.4126 21.368 92.2393 21.8773 92.2393 22.512L91.4873 22.064C91.4873 21.504 91.6206 21.0027 91.8873 20.56C92.154 20.1173 92.5166 19.7707 92.9753 19.52C93.434 19.264 93.954 19.136 94.5353 19.136C95.1166 19.136 95.6233 19.2587 96.0553 19.504C96.4873 19.7493 96.8206 20.1013 97.0553 20.56C97.29 21.0133 97.4073 21.5547 97.4073 22.184L97.3993 28H95.9833ZM107.115 28.24C106.47 28.24 105.928 28.1227 105.491 27.888C105.059 27.648 104.731 27.3333 104.507 26.944C104.288 26.5547 104.179 26.128 104.179 25.664C104.179 25.2107 104.264 24.8187 104.435 24.488C104.611 24.152 104.856 23.8747 105.171 23.656C105.486 23.432 105.862 23.256 106.299 23.128C106.71 23.016 107.168 22.92 107.675 22.84C108.187 22.7547 108.704 22.6773 109.227 22.608C109.75 22.5387 110.238 22.472 110.691 22.408L110.179 22.704C110.195 21.936 110.04 21.368 109.715 21C109.395 20.632 108.84 20.448 108.051 20.448C107.528 20.448 107.07 20.568 106.675 20.808C106.286 21.0427 106.011 21.4267 105.851 21.96L104.499 21.552C104.707 20.7947 105.11 20.2 105.707 19.768C106.304 19.336 107.091 19.12 108.067 19.12C108.851 19.12 109.523 19.2613 110.083 19.544C110.648 19.8213 111.054 20.2427 111.299 20.808C111.422 21.0747 111.499 21.3653 111.531 21.68C111.563 21.9893 111.579 22.3147 111.579 22.656V28H110.315V25.928L110.611 26.12C110.286 26.8187 109.83 27.3467 109.243 27.704C108.662 28.0613 107.952 28.24 107.115 28.24ZM107.331 27.048C107.843 27.048 108.286 26.9573 108.659 26.776C109.038 26.5893 109.342 26.3467 109.571 26.048C109.8 25.744 109.95 25.4133 110.019 25.056C110.099 24.7893 110.142 24.4933 110.147 24.168C110.158 23.8373 110.163 23.584 110.163 23.408L110.659 23.624C110.195 23.688 109.739 23.7493 109.291 23.808C108.843 23.8667 108.419 23.9307 108.019 24C107.619 24.064 107.259 24.1413 106.939 24.232C106.704 24.3067 106.483 24.4027 106.275 24.52C106.072 24.6373 105.907 24.7893 105.779 24.976C105.656 25.1573 105.595 25.384 105.595 25.656C105.595 25.8907 105.654 26.1147 105.771 26.328C105.894 26.5413 106.08 26.7147 106.331 26.848C106.587 26.9813 106.92 27.048 107.331 27.048ZM113.819 17.832V16.36H115.243V17.832H113.819ZM113.819 28V19.36H115.243V28H113.819ZM117.803 28V16.24H119.227V28H117.803Z" fill="#5E5F60"/>
</svg>
