<svg width="201" height="45" viewBox="0 0 201 45" fill="none" xmlns="http://www.w3.org/2000/svg">
<rect x="1" y="1.15918" width="199" height="43" rx="11.5" fill="white" fill-opacity="0.6"/>
<rect x="1" y="1.15918" width="199" height="43" rx="11.5" stroke="#794EF2"/>
<path d="M61.6316 28.6592V17.1392H63.3036V27.0832H68.5196V28.6592H61.6316ZM73.7098 28.8992C72.8511 28.8992 72.0965 28.7125 71.4458 28.3392C70.8005 27.9605 70.2965 27.4352 69.9338 26.7632C69.5765 26.0858 69.3978 25.3018 69.3978 24.4112C69.3978 23.4672 69.5738 22.6485 69.9258 21.9552C70.2831 21.2618 70.7791 20.7258 71.4138 20.3472C72.0485 19.9685 72.7871 19.7792 73.6298 19.7792C74.5098 19.7792 75.2591 19.9845 75.8778 20.3952C76.4965 20.8005 76.9578 21.3792 77.2618 22.1312C77.5711 22.8832 77.6938 23.7765 77.6298 24.8112H75.9578V24.2032C75.9471 23.2005 75.7551 22.4592 75.3818 21.9792C75.0138 21.4992 74.4511 21.2592 73.6938 21.2592C72.8565 21.2592 72.2271 21.5232 71.8058 22.0512C71.3845 22.5792 71.1738 23.3418 71.1738 24.3392C71.1738 25.2885 71.3845 26.0245 71.8058 26.5472C72.2271 27.0645 72.8351 27.3232 73.6298 27.3232C74.1525 27.3232 74.6031 27.2058 74.9818 26.9712C75.3658 26.7312 75.6645 26.3898 75.8778 25.9472L77.5178 26.4672C77.1818 27.2405 76.6725 27.8405 75.9898 28.2672C75.3071 28.6885 74.5471 28.8992 73.7098 28.8992ZM70.6298 24.8112V23.5072H76.7978V24.8112H70.6298ZM84.3687 28.6592C83.8247 28.7658 83.2914 28.8112 82.7687 28.7952C82.246 28.7792 81.7794 28.6778 81.3687 28.4912C80.958 28.3045 80.6487 28.0112 80.4407 27.6112C80.254 27.2538 80.1527 26.8912 80.1367 26.5232C80.126 26.1498 80.1207 25.7285 80.1207 25.2592V17.6192H81.8007V25.1792C81.8007 25.5258 81.8034 25.8272 81.8087 26.0832C81.8194 26.3392 81.8754 26.5552 81.9767 26.7312C82.1687 27.0618 82.4727 27.2512 82.8887 27.2992C83.31 27.3418 83.8034 27.3232 84.3687 27.2432V28.6592ZM78.4647 21.3632V20.0192H84.3687V21.3632H78.4647ZM86.3503 20.9792L86.4543 20.2352C86.6836 20.2512 86.8623 20.2085 86.9903 20.1072C87.1183 20.0058 87.2036 19.8645 87.2463 19.6832C87.289 19.5018 87.297 19.2965 87.2703 19.0672H86.3503V17.1392H88.1183V19.2272C88.1183 19.8565 87.9663 20.3312 87.6623 20.6512C87.3636 20.9712 86.9263 21.0805 86.3503 20.9792ZM92.4318 28.8912C91.3811 28.8912 90.5251 28.6592 89.8638 28.1952C89.2025 27.7312 88.7971 27.0778 88.6478 26.2352L90.3598 25.9712C90.4665 26.4192 90.7118 26.7738 91.0958 27.0352C91.4851 27.2912 91.9678 27.4192 92.5438 27.4192C93.0665 27.4192 93.4745 27.3125 93.7678 27.0992C94.0665 26.8858 94.2158 26.5925 94.2158 26.2192C94.2158 26.0005 94.1625 25.8245 94.0558 25.6912C93.9545 25.5525 93.7385 25.4218 93.4078 25.2992C93.0771 25.1765 92.5731 25.0245 91.8958 24.8432C91.1545 24.6512 90.5651 24.4458 90.1278 24.2272C89.6958 24.0032 89.3865 23.7445 89.1998 23.4512C89.0185 23.1525 88.9278 22.7925 88.9278 22.3712C88.9278 21.8485 89.0665 21.3925 89.3438 21.0032C89.6211 20.6138 90.0105 20.3125 90.5118 20.0992C91.0185 19.8858 91.6105 19.7792 92.2878 19.7792C92.9491 19.7792 93.5385 19.8832 94.0558 20.0912C94.5731 20.2992 94.9918 20.5952 95.3118 20.9792C95.6318 21.3578 95.8238 21.8032 95.8878 22.3152L94.1758 22.6272C94.1171 22.2112 93.9225 21.8832 93.5918 21.6432C93.2611 21.4032 92.8318 21.2725 92.3038 21.2512C91.7971 21.2298 91.3865 21.3152 91.0718 21.5072C90.7571 21.6938 90.5998 21.9525 90.5998 22.2832C90.5998 22.4752 90.6585 22.6378 90.7758 22.7712C90.8985 22.9045 91.1331 23.0325 91.4798 23.1552C91.8265 23.2778 92.3385 23.4245 93.0158 23.5952C93.7411 23.7818 94.3171 23.9898 94.7438 24.2192C95.1705 24.4432 95.4745 24.7125 95.6558 25.0272C95.8425 25.3365 95.9358 25.7125 95.9358 26.1552C95.9358 27.0085 95.6238 27.6778 94.9998 28.1632C94.3811 28.6485 93.5251 28.8912 92.4318 28.8912ZM111.261 28.6592L111.269 23.2752C111.269 22.6512 111.109 22.1658 110.789 21.8192C110.469 21.4672 110.048 21.2912 109.525 21.2912C109.205 21.2912 108.912 21.3658 108.645 21.5152C108.384 21.6592 108.17 21.8778 108.005 22.1712C107.845 22.4592 107.765 22.8218 107.765 23.2592L106.957 22.8512C106.946 22.2432 107.074 21.7098 107.341 21.2512C107.613 20.7925 107.981 20.4378 108.445 20.1872C108.909 19.9312 109.429 19.8032 110.005 19.8032C110.938 19.8032 111.661 20.0832 112.173 20.6432C112.685 21.2032 112.941 21.9472 112.941 22.8752L112.933 28.6592H111.261ZM100.901 28.6592V20.0192H102.389V22.5152H102.581V28.6592H100.901ZM106.085 28.6592L106.093 23.3072C106.093 22.6778 105.933 22.1845 105.613 21.8272C105.298 21.4698 104.874 21.2912 104.341 21.2912C103.813 21.2912 103.386 21.4725 103.061 21.8352C102.741 22.1978 102.581 22.6725 102.581 23.2592L101.781 22.7472C101.781 22.1818 101.917 21.6778 102.189 21.2352C102.461 20.7925 102.829 20.4432 103.293 20.1872C103.757 19.9312 104.282 19.8032 104.869 19.8032C105.482 19.8032 106.005 19.9338 106.437 20.1952C106.869 20.4512 107.197 20.8112 107.421 21.2752C107.65 21.7392 107.765 22.2778 107.765 22.8912L107.757 28.6592H106.085ZM118.741 28.8992C117.882 28.8992 117.128 28.7125 116.477 28.3392C115.832 27.9605 115.328 27.4352 114.965 26.7632C114.608 26.0858 114.429 25.3018 114.429 24.4112C114.429 23.4672 114.605 22.6485 114.957 21.9552C115.314 21.2618 115.81 20.7258 116.445 20.3472C117.08 19.9685 117.818 19.7792 118.661 19.7792C119.541 19.7792 120.29 19.9845 120.909 20.3952C121.528 20.8005 121.989 21.3792 122.293 22.1312C122.602 22.8832 122.725 23.7765 122.661 24.8112H120.989V24.2032C120.978 23.2005 120.786 22.4592 120.413 21.9792C120.045 21.4992 119.482 21.2592 118.725 21.2592C117.888 21.2592 117.258 21.5232 116.837 22.0512C116.416 22.5792 116.205 23.3418 116.205 24.3392C116.205 25.2885 116.416 26.0245 116.837 26.5472C117.258 27.0645 117.866 27.3232 118.661 27.3232C119.184 27.3232 119.634 27.2058 120.013 26.9712C120.397 26.7312 120.696 26.3898 120.909 25.9472L122.549 26.4672C122.213 27.2405 121.704 27.8405 121.021 28.2672C120.338 28.6885 119.578 28.8992 118.741 28.8992ZM115.661 24.8112V23.5072H121.829V24.8112H115.661ZM128.288 28.8992C127.429 28.8992 126.675 28.7125 126.024 28.3392C125.379 27.9605 124.875 27.4352 124.512 26.7632C124.155 26.0858 123.976 25.3018 123.976 24.4112C123.976 23.4672 124.152 22.6485 124.504 21.9552C124.861 21.2618 125.357 20.7258 125.992 20.3472C126.627 19.9685 127.365 19.7792 128.208 19.7792C129.088 19.7792 129.837 19.9845 130.456 20.3952C131.075 20.8005 131.536 21.3792 131.84 22.1312C132.149 22.8832 132.272 23.7765 132.208 24.8112H130.536V24.2032C130.525 23.2005 130.333 22.4592 129.96 21.9792C129.592 21.4992 129.029 21.2592 128.272 21.2592C127.435 21.2592 126.805 21.5232 126.384 22.0512C125.963 22.5792 125.752 23.3418 125.752 24.3392C125.752 25.2885 125.963 26.0245 126.384 26.5472C126.805 27.0645 127.413 27.3232 128.208 27.3232C128.731 27.3232 129.181 27.2058 129.56 26.9712C129.944 26.7312 130.243 26.3898 130.456 25.9472L132.096 26.4672C131.76 27.2405 131.251 27.8405 130.568 28.2672C129.885 28.6885 129.125 28.8992 128.288 28.8992ZM125.208 24.8112V23.5072H131.376V24.8112H125.208ZM138.947 28.6592C138.403 28.7658 137.869 28.8112 137.347 28.7952C136.824 28.7792 136.357 28.6778 135.947 28.4912C135.536 28.3045 135.227 28.0112 135.019 27.6112C134.832 27.2538 134.731 26.8912 134.715 26.5232C134.704 26.1498 134.699 25.7285 134.699 25.2592V17.6192H136.379V25.1792C136.379 25.5258 136.381 25.8272 136.387 26.0832C136.397 26.3392 136.453 26.5552 136.555 26.7312C136.747 27.0618 137.051 27.2512 137.467 27.2992C137.888 27.3418 138.381 27.3232 138.947 27.2432V28.6592ZM133.043 21.3632V20.0192H138.947V21.3632H133.043Z" fill="#0E0E0E"/>
</svg>
