<svg width="201" height="45" viewBox="0 0 201 45" fill="none" xmlns="http://www.w3.org/2000/svg">
<mask id="path-1-outside-1_1_2859" maskUnits="userSpaceOnUse" x="0.5" y="0" width="200" height="45" fill="black">
<rect fill="white" x="0.5" width="200" height="45"/>
<path d="M0.5 0H200.5V44H0.5V0Z"/>
</mask>
<path d="M0.5 0H200.5V44H0.5V0Z" fill="white" fill-opacity="0.28"/>
<path d="M0.5 44V44.5H1.5V44V43.5H0.5V44ZM3.5 44V44.5H5.5V44V43.5H3.5V44ZM7.5 44V44.5H9.5V44V43.5H7.5V44ZM11.5 44V44.5H13.5V44V43.5H11.5V44ZM15.5 44V44.5H17.5V44V43.5H15.5V44ZM19.5 44V44.5H21.5V44V43.5H19.5V44ZM23.5 44V44.5H25.5V44V43.5H23.5V44ZM27.5 44V44.5H29.5V44V43.5H27.5V44ZM31.5 44V44.5H33.5V44V43.5H31.5V44ZM35.5 44V44.5H37.5V44V43.5H35.5V44ZM39.5 44V44.5H41.5V44V43.5H39.5V44ZM43.5 44V44.5H45.5V44V43.5H43.5V44ZM47.5 44V44.5H49.5V44V43.5H47.5V44ZM51.5 44V44.5H53.5V44V43.5H51.5V44ZM55.5 44V44.5H57.5V44V43.5H55.5V44ZM59.5 44V44.5H61.5V44V43.5H59.5V44ZM63.5 44V44.5H65.5V44V43.5H63.5V44ZM67.5 44V44.5H69.5V44V43.5H67.5V44ZM71.5 44V44.5H73.5V44V43.5H71.5V44ZM75.5 44V44.5H77.5V44V43.5H75.5V44ZM79.5 44V44.5H81.5V44V43.5H79.5V44ZM83.5 44V44.5H85.5V44V43.5H83.5V44ZM87.5 44V44.5H89.5V44V43.5H87.5V44ZM91.5 44V44.5H93.5V44V43.5H91.5V44ZM95.5 44V44.5H97.5V44V43.5H95.5V44ZM99.5 44V44.5H101.5V44V43.5H99.5V44ZM103.5 44V44.5H105.5V44V43.5H103.5V44ZM107.5 44V44.5H109.5V44V43.5H107.5V44ZM111.5 44V44.5H113.5V44V43.5H111.5V44ZM115.5 44V44.5H117.5V44V43.5H115.5V44ZM119.5 44V44.5H121.5V44V43.5H119.5V44ZM123.5 44V44.5H125.5V44V43.5H123.5V44ZM127.5 44V44.5H129.5V44V43.5H127.5V44ZM131.5 44V44.5H133.5V44V43.5H131.5V44ZM135.5 44V44.5H137.5V44V43.5H135.5V44ZM139.5 44V44.5H141.5V44V43.5H139.5V44ZM143.5 44V44.5H145.5V44V43.5H143.5V44ZM147.5 44V44.5H149.5V44V43.5H147.5V44ZM151.5 44V44.5H153.5V44V43.5H151.5V44ZM155.5 44V44.5H157.5V44V43.5H155.5V44ZM159.5 44V44.5H161.5V44V43.5H159.5V44ZM163.5 44V44.5H165.5V44V43.5H163.5V44ZM167.5 44V44.5H169.5V44V43.5H167.5V44ZM171.5 44V44.5H173.5V44V43.5H171.5V44ZM175.5 44V44.5H177.5V44V43.5H175.5V44ZM179.5 44V44.5H181.5V44V43.5H179.5V44ZM183.5 44V44.5H185.5V44V43.5H183.5V44ZM187.5 44V44.5H189.5V44V43.5H187.5V44ZM191.5 44V44.5H193.5V44V43.5H191.5V44ZM195.5 44V44.5H197.5V44V43.5H195.5V44ZM199.5 44V44.5H200.5V44V43.5H199.5V44ZM0.5 44V45H1.5V44V43H0.5V44ZM3.5 44V45H5.5V44V43H3.5V44ZM7.5 44V45H9.5V44V43H7.5V44ZM11.5 44V45H13.5V44V43H11.5V44ZM15.5 44V45H17.5V44V43H15.5V44ZM19.5 44V45H21.5V44V43H19.5V44ZM23.5 44V45H25.5V44V43H23.5V44ZM27.5 44V45H29.5V44V43H27.5V44ZM31.5 44V45H33.5V44V43H31.5V44ZM35.5 44V45H37.5V44V43H35.5V44ZM39.5 44V45H41.5V44V43H39.5V44ZM43.5 44V45H45.5V44V43H43.5V44ZM47.5 44V45H49.5V44V43H47.5V44ZM51.5 44V45H53.5V44V43H51.5V44ZM55.5 44V45H57.5V44V43H55.5V44ZM59.5 44V45H61.5V44V43H59.5V44ZM63.5 44V45H65.5V44V43H63.5V44ZM67.5 44V45H69.5V44V43H67.5V44ZM71.5 44V45H73.5V44V43H71.5V44ZM75.5 44V45H77.5V44V43H75.5V44ZM79.5 44V45H81.5V44V43H79.5V44ZM83.5 44V45H85.5V44V43H83.5V44ZM87.5 44V45H89.5V44V43H87.5V44ZM91.5 44V45H93.5V44V43H91.5V44ZM95.5 44V45H97.5V44V43H95.5V44ZM99.5 44V45H101.5V44V43H99.5V44ZM103.5 44V45H105.5V44V43H103.5V44ZM107.5 44V45H109.5V44V43H107.5V44ZM111.5 44V45H113.5V44V43H111.5V44ZM115.5 44V45H117.5V44V43H115.5V44ZM119.5 44V45H121.5V44V43H119.5V44ZM123.5 44V45H125.5V44V43H123.5V44ZM127.5 44V45H129.5V44V43H127.5V44ZM131.5 44V45H133.5V44V43H131.5V44ZM135.5 44V45H137.5V44V43H135.5V44ZM139.5 44V45H141.5V44V43H139.5V44ZM143.5 44V45H145.5V44V43H143.5V44ZM147.5 44V45H149.5V44V43H147.5V44ZM151.5 44V45H153.5V44V43H151.5V44ZM155.5 44V45H157.5V44V43H155.5V44ZM159.5 44V45H161.5V44V43H159.5V44ZM163.5 44V45H165.5V44V43H163.5V44ZM167.5 44V45H169.5V44V43H167.5V44ZM171.5 44V45H173.5V44V43H171.5V44ZM175.5 44V45H177.5V44V43H175.5V44ZM179.5 44V45H181.5V44V43H179.5V44ZM183.5 44V45H185.5V44V43H183.5V44ZM187.5 44V45H189.5V44V43H187.5V44ZM191.5 44V45H193.5V44V43H191.5V44ZM195.5 44V45H197.5V44V43H195.5V44ZM199.5 44V45H200.5V44V43H199.5V44Z" fill="#794EF2" mask="url(#path-1-outside-1_1_2859)"/>
<path d="M79.4481 28V16.48H80.8881L86.8961 25.48V16.48H88.3361V28H86.8961L80.8881 18.992V28H79.4481ZM93.0291 28.24C92.3838 28.24 91.8425 28.1227 91.4051 27.888C90.9731 27.648 90.6451 27.3333 90.4211 26.944C90.2025 26.5547 90.0931 26.128 90.0931 25.664C90.0931 25.2107 90.1785 24.8187 90.3491 24.488C90.5251 24.152 90.7705 23.8747 91.0851 23.656C91.3998 23.432 91.7758 23.256 92.2131 23.128C92.6238 23.016 93.0825 22.92 93.5891 22.84C94.1011 22.7547 94.6185 22.6773 95.1411 22.608C95.6638 22.5387 96.1518 22.472 96.6051 22.408L96.0931 22.704C96.1091 21.936 95.9545 21.368 95.6291 21C95.3091 20.632 94.7545 20.448 93.9651 20.448C93.4425 20.448 92.9838 20.568 92.5891 20.808C92.1998 21.0427 91.9251 21.4267 91.7651 21.96L90.4131 21.552C90.6211 20.7947 91.0238 20.2 91.6211 19.768C92.2185 19.336 93.0051 19.12 93.9811 19.12C94.7651 19.12 95.4371 19.2613 95.9971 19.544C96.5625 19.8213 96.9678 20.2427 97.2131 20.808C97.3358 21.0747 97.4131 21.3653 97.4451 21.68C97.4771 21.9893 97.4931 22.3147 97.4931 22.656V28H96.2291V25.928L96.5251 26.12C96.1998 26.8187 95.7438 27.3467 95.1571 27.704C94.5758 28.0613 93.8665 28.24 93.0291 28.24ZM93.2451 27.048C93.7571 27.048 94.1998 26.9573 94.5731 26.776C94.9518 26.5893 95.2558 26.3467 95.4851 26.048C95.7145 25.744 95.8638 25.4133 95.9331 25.056C96.0131 24.7893 96.0558 24.4933 96.0611 24.168C96.0718 23.8373 96.0771 23.584 96.0771 23.408L96.5731 23.624C96.1091 23.688 95.6531 23.7493 95.2051 23.808C94.7571 23.8667 94.3331 23.9307 93.9331 24C93.5331 24.064 93.1731 24.1413 92.8531 24.232C92.6185 24.3067 92.3971 24.4027 92.1891 24.52C91.9865 24.6373 91.8211 24.7893 91.6931 24.976C91.5705 25.1573 91.5091 25.384 91.5091 25.656C91.5091 25.8907 91.5678 26.1147 91.6851 26.328C91.8078 26.5413 91.9945 26.7147 92.2451 26.848C92.5011 26.9813 92.8345 27.048 93.2451 27.048ZM109.901 28L109.909 22.472C109.909 21.8267 109.736 21.3227 109.389 20.96C109.048 20.592 108.602 20.408 108.053 20.408C107.733 20.408 107.429 20.4827 107.141 20.632C106.853 20.776 106.618 21.0053 106.437 21.32C106.256 21.6293 106.165 22.0267 106.165 22.512L105.413 22.208C105.402 21.5947 105.528 21.0587 105.789 20.6C106.056 20.136 106.418 19.776 106.877 19.52C107.336 19.264 107.853 19.136 108.429 19.136C109.33 19.136 110.04 19.4107 110.557 19.96C111.074 20.504 111.333 21.2373 111.333 22.16L111.325 28H109.901ZM99.5651 28V19.36H100.837V21.672H100.997V28H99.5651ZM104.741 28L104.749 22.528C104.749 21.8667 104.578 21.3493 104.237 20.976C103.896 20.5973 103.442 20.408 102.877 20.408C102.317 20.408 101.864 20.6 101.517 20.984C101.17 21.368 100.997 21.8773 100.997 22.512L100.245 22.064C100.245 21.504 100.378 21.0027 100.645 20.56C100.912 20.1173 101.274 19.7707 101.733 19.52C102.192 19.264 102.712 19.136 103.293 19.136C103.874 19.136 104.381 19.2587 104.813 19.504C105.245 19.7493 105.578 20.1013 105.813 20.56C106.048 21.0133 106.165 21.5547 106.165 22.184L106.157 28H104.741ZM117.083 28.24C116.235 28.24 115.493 28.0533 114.859 27.68C114.229 27.3013 113.739 26.776 113.387 26.104C113.035 25.4267 112.859 24.6373 112.859 23.736C112.859 22.792 113.032 21.976 113.379 21.288C113.725 20.5947 114.208 20.0613 114.827 19.688C115.451 19.3093 116.181 19.12 117.019 19.12C117.888 19.12 118.627 19.32 119.235 19.72C119.848 20.12 120.307 20.6907 120.611 21.432C120.92 22.1733 121.053 23.056 121.011 24.08H119.571V23.568C119.555 22.5067 119.339 21.7147 118.923 21.192C118.507 20.664 117.888 20.4 117.067 20.4C116.187 20.4 115.517 20.6827 115.059 21.248C114.6 21.8133 114.371 22.624 114.371 23.68C114.371 24.6987 114.6 25.488 115.059 26.048C115.517 26.608 116.171 26.888 117.019 26.888C117.589 26.888 118.085 26.7573 118.507 26.496C118.928 26.2347 119.259 25.8587 119.499 25.368L120.867 25.84C120.531 26.6027 120.024 27.1947 119.347 27.616C118.675 28.032 117.92 28.24 117.083 28.24ZM113.891 24.08V22.936H120.275V24.08H113.891Z" fill="#5E5F60"/>
</svg>
